<svg width="25" height="25" viewBox="0 0 25 25" fill="none" xmlns="http://www.w3.org/2000/svg">
<path d="M14.8781 3.64687L6.78125 11.9531C6.63904 12.099 6.55945 12.2947 6.55945 12.4984C6.55945 12.7022 6.63904 12.8978 6.78125 13.0437L14.8781 21.3531C14.9444 21.4212 15.0236 21.4752 15.1111 21.5122C15.1985 21.5491 15.2925 21.5681 15.3875 21.5681C15.4825 21.5681 15.5765 21.5491 15.6639 21.5122C15.7514 21.4752 15.8306 21.4212 15.8969 21.3531C16.0332 21.2136 16.1095 21.0263 16.1095 20.8312C16.1095 20.6362 16.0332 20.4489 15.8969 20.3094L8.28281 12.4984L15.8969 4.68906C16.0327 4.5496 16.1087 4.36263 16.1087 4.16796C16.1087 3.9733 16.0327 3.78633 15.8969 3.64687C15.8306 3.57883 15.7514 3.52476 15.6639 3.48783C15.5765 3.45091 15.4825 3.43188 15.3875 3.43188C15.2925 3.43188 15.1985 3.45091 15.1111 3.48783C15.0236 3.52476 14.9444 3.57883 14.8781 3.64687Z" fill="#AAAAAA"/>
</svg>
