<svg width="25" height="25" viewBox="0 0 25 25" fill="none" xmlns="http://www.w3.org/2000/svg">
<path d="M8.32187 3.64531C8.18558 3.78483 8.10928 3.97214 8.10928 4.16718C8.10928 4.36222 8.18558 4.54953 8.32187 4.68906L15.9359 12.5L8.32187 20.3094C8.18558 20.4489 8.10928 20.6362 8.10928 20.8312C8.10928 21.0263 8.18558 21.2136 8.32187 21.3531C8.38811 21.4212 8.46731 21.4752 8.5548 21.5122C8.64229 21.5491 8.73628 21.5681 8.83124 21.5681C8.9262 21.5681 9.0202 21.5491 9.10768 21.5122C9.19517 21.4752 9.27437 21.4212 9.34062 21.3531L17.4375 13.0453C17.5797 12.8994 17.6593 12.7037 17.6593 12.5C17.6593 12.2963 17.5797 12.1006 17.4375 11.9547L9.34062 3.64687C9.27437 3.57883 9.19517 3.52476 9.10768 3.48783C9.0202 3.45091 8.9262 3.43188 8.83124 3.43188C8.73628 3.43188 8.64229 3.45091 8.5548 3.48783C8.46731 3.52476 8.38811 3.57883 8.32187 3.64687V3.64531Z" fill="#AAAAAA"/>
</svg>
